<svg width="32" height="32" viewBox="0 0 32 32" fill="none" xmlns="http://www.w3.org/2000/svg">
<path fill-rule="evenodd" clip-rule="evenodd" d="M16.0001 17.715C15.118 17.715 14.4001 16.9459 14.4001 16.0008C14.4001 15.0557 15.118 14.2866 16.0001 14.2866C16.8822 14.2866 17.6001 15.0557 17.6001 16.0008C17.6001 16.9459 16.8822 17.715 16.0001 17.715ZM16.0001 12.001C13.9414 12.001 12.2667 13.7952 12.2667 16.0008C12.2667 18.2064 13.9414 20.0006 16.0001 20.0006C18.0588 20.0006 19.7335 18.2064 19.7335 16.0008C19.7335 13.7952 18.0588 12.001 16.0001 12.001ZM16.2345 21.7121C11.6413 21.8264 8.64503 17.6174 7.65088 15.9958C8.74529 14.1616 11.5016 10.4063 15.7662 10.2897C20.3412 10.1652 23.3545 14.3844 24.3487 16.0061C23.2553 17.8403 20.498 21.5955 16.2345 21.7121ZM26.5258 15.4324C25.8452 14.1616 22.0863 7.79155 15.7118 8.00525C9.81517 8.16525 6.3858 13.7307 5.47485 15.4324C5.28605 15.7844 5.28605 16.2175 5.47485 16.5695C6.1458 17.8231 9.77251 24 16.0265 24C16.1139 24 16.2014 23.9989 16.2889 23.9966C22.1844 23.8354 25.6148 18.2711 26.5258 16.5695C26.7135 16.2175 26.7135 15.7844 26.5258 15.4324Z" fill="#00B3DB"/>
</svg>
